<?xml version="1.0" encoding="UTF-8"?>
<!DOCTYPE svg PUBLIC "-//W3C//DTD SVG 1.1//EN" "http://www.w3.org/Graphics/SVG/1.1/DTD/svg11.dtd">
<svg version="1.2" viewBox="8500 2780 11793 8563" preserveAspectRatio="xMidYMid" fill-rule="evenodd" stroke-width="28.222" stroke-linejoin="round" xmlns="http://www.w3.org/2000/svg" xmlns:ooo="http://xml.openoffice.org/svg/export" xmlns:xlink="http://www.w3.org/1999/xlink" xmlns:presentation="http://sun.com/xmlns/staroffice/presentation" xmlns:smil="http://www.w3.org/2001/SMIL20/" xmlns:anim="urn:oasis:names:tc:opendocument:xmlns:animation:1.0" xml:space="preserve">
 <defs class="EmbeddedBulletChars">
  <g id="bullet-char-template-57356" transform="scale(0.00048828125,-0.00048828125)">
   <path d="M 580,1141 L 1163,571 580,0 -4,571 580,1141 Z"/>
  </g>
  <g id="bullet-char-template-57354" transform="scale(0.00048828125,-0.00048828125)">
   <path d="M 8,1128 L 1137,1128 1137,0 8,0 8,1128 Z"/>
  </g>
  <g id="bullet-char-template-10146" transform="scale(0.00048828125,-0.00048828125)">
   <path d="M 174,0 L 602,739 174,1481 1456,739 174,0 Z M 1358,739 L 309,1346 659,739 1358,739 Z"/>
  </g>
  <g id="bullet-char-template-10132" transform="scale(0.00048828125,-0.00048828125)">
   <path d="M 2015,739 L 1276,0 717,0 1260,543 174,543 174,936 1260,936 717,1481 1274,1481 2015,739 Z"/>
  </g>
  <g id="bullet-char-template-10007" transform="scale(0.00048828125,-0.00048828125)">
   <path d="M 0,-2 C -7,14 -16,27 -25,37 L 356,567 C 262,823 215,952 215,954 215,979 228,992 255,992 264,992 276,990 289,987 310,991 331,999 354,1012 L 381,999 492,748 772,1049 836,1024 860,1049 C 881,1039 901,1025 922,1006 886,937 835,863 770,784 769,783 710,716 594,584 L 774,223 C 774,196 753,168 711,139 L 727,119 C 717,90 699,76 672,76 641,76 570,178 457,381 L 164,-76 C 142,-110 111,-127 72,-127 30,-127 9,-110 8,-76 1,-67 -2,-52 -2,-32 -2,-23 -1,-13 0,-2 Z"/>
  </g>
  <g id="bullet-char-template-10004" transform="scale(0.00048828125,-0.00048828125)">
   <path d="M 285,-33 C 182,-33 111,30 74,156 52,228 41,333 41,471 41,549 55,616 82,672 116,743 169,778 240,778 293,778 328,747 346,684 L 369,508 C 377,444 397,411 428,410 L 1163,1116 C 1174,1127 1196,1133 1229,1133 1271,1133 1292,1118 1292,1087 L 1292,965 C 1292,929 1282,901 1262,881 L 442,47 C 390,-6 338,-33 285,-33 Z"/>
  </g>
  <g id="bullet-char-template-9679" transform="scale(0.00048828125,-0.00048828125)">
   <path d="M 813,0 C 632,0 489,54 383,161 276,268 223,411 223,592 223,773 276,916 383,1023 489,1130 632,1184 813,1184 992,1184 1136,1130 1245,1023 1353,916 1407,772 1407,592 1407,412 1353,268 1245,161 1136,54 992,0 813,0 Z"/>
  </g>
  <g id="bullet-char-template-8226" transform="scale(0.00048828125,-0.00048828125)">
   <path d="M 346,457 C 273,457 209,483 155,535 101,586 74,649 74,723 74,796 101,859 155,911 209,963 273,989 346,989 419,989 480,963 531,910 582,859 608,796 608,723 608,648 583,586 532,535 482,483 420,457 346,457 Z"/>
  </g>
  <g id="bullet-char-template-8211" transform="scale(0.00048828125,-0.00048828125)">
   <path d="M -4,459 L 1135,459 1135,606 -4,606 -4,459 Z"/>
  </g>
  <g id="bullet-char-template-61548" transform="scale(0.00048828125,-0.00048828125)">
   <path d="M 173,740 C 173,903 231,1043 346,1159 462,1274 601,1332 765,1332 928,1332 1067,1274 1183,1159 1299,1043 1357,903 1357,740 1357,577 1299,437 1183,322 1067,206 928,148 765,148 601,148 462,206 346,322 231,437 173,577 173,740 Z"/>
  </g>
 </defs>
 <g ooo:name="page1" class="Page">
  <g class="Graphic">
   <title>logo_vb
   </title>
   <g id="id3">
    <rect class="BoundingBox" stroke="none" fill="none" x="8500" y="3000" width="5501" height="5501"/>
    <defs>
     <clipPath id="clip_path_1" clipPathUnits="userSpaceOnUse">
      <path d="M 8500,3000 L 14000,3000 14000,8500 8500,8500 8500,3000 Z"/>
     </clipPath>
    </defs>
    <g clip-path="url(#clip_path_1)">
     <path fill="rgb(0,78,140)" stroke="none" d="M 14000,5750 C 14000,6233 13873,6707 13632,7125 13390,7543 13043,7890 12625,8132 12207,8373 11733,8500 11250,8500 10767,8500 10293,8373 9875,8132 9457,7890 9110,7543 8868,7125 8627,6707 8500,6233 8500,5750 8500,5267 8627,4793 8868,4375 9110,3957 9457,3610 9875,3368 10293,3127 10767,3000 11250,3000 11733,3000 12207,3127 12625,3368 13043,3610 13390,3957 13632,4375 13873,4793 14000,5267 14000,5750 L 14000,5750 Z"/>
     <path fill="rgb(255,255,255)" fill-opacity="0.102" stroke="rgb(255,255,255)" stroke-opacity="0.102" d="M 9344,3773 L 9344,3773 C 9125,3969 8939,4198 8792,4452 8551,4870 8423,5344 8423,5827 8423,6309 8551,6783 8792,7202 9033,7620 9380,7967 9798,8208 10217,8449 10691,8577 11173,8577 11656,8577 12130,8449 12548,8208 12802,8061 13031,7875 13227,7656 L 9344,3773 Z"/>
     <path fill="rgb(255,255,255)" stroke="none" d="M 11361,4667 L 10563,6833 10280,6833 9494,4667 9777,4667 10379,6386 10379,6386 C 10399,6448 10414,6512 10422,6578 L 10428,6578 10428,6578 C 10437,6511 10454,6445 10477,6382 L 11088,4663 11361,4667 Z"/>
     <path fill="rgb(255,255,255)" stroke="none" d="M 11673,6833 L 11673,4667 12289,4667 12289,4667 C 12301,4667 12313,4666 12325,4666 12443,4666 12559,4697 12662,4756 12687,4771 12711,4787 12734,4805 L 12734,4805 C 12777,4839 12812,4881 12840,4928 12879,4996 12899,5072 12899,5150 12899,5155 12899,5159 12899,5163 L 12899,5163 C 12899,5166 12899,5168 12899,5171 12899,5263 12875,5354 12829,5434 12819,5451 12808,5467 12797,5483 L 12797,5483 C 12753,5541 12698,5591 12634,5627 12599,5648 12561,5664 12522,5676 L 12522,5682 12522,5682 C 12603,5689 12682,5713 12753,5754 12797,5779 12837,5811 12873,5847 L 12873,5847 C 12897,5874 12918,5903 12936,5935 12981,6012 13004,6100 13004,6189 13004,6196 13004,6203 13004,6211 L 13004,6211 C 13004,6217 13004,6223 13004,6229 13004,6329 12978,6426 12928,6512 12896,6569 12854,6619 12805,6661 L 12805,6661 C 12772,6688 12737,6713 12700,6734 12587,6799 12459,6833 12329,6833 12320,6833 12311,6833 12302,6833 L 11673,6833 Z M 11931,4896 L 11931,5595 12188,5595 12188,5595 C 12196,5596 12204,5596 12212,5596 12298,5596 12383,5573 12458,5530 12478,5519 12496,5506 12514,5492 L 12514,5492 C 12543,5467 12568,5437 12587,5403 12618,5350 12634,5290 12634,5228 12634,5222 12634,5215 12634,5209 12634,4998 12495,4893 12219,4893 L 11931,4896 Z M 11931,5823 L 11931,6603 12274,6603 12274,6603 C 12284,6603 12294,6603 12304,6603 12395,6603 12484,6580 12562,6534 12582,6523 12600,6511 12618,6497 L 12618,6497 C 12648,6471 12673,6440 12693,6406 12725,6351 12741,6288 12741,6225 12741,6219 12741,6213 12741,6207 12741,5952 12567,5824 12219,5824 L 11931,5823 Z"/>
    </g>
   </g>
  </g>
  <g class="Graphic">
   <g id="id4">
    <rect class="BoundingBox" stroke="none" fill="none" x="11500" y="5416" width="6244" height="5927"/>
    <defs>
     <clipPath id="clip_path_2" clipPathUnits="userSpaceOnUse">
      <path d="M 11500,5416 L 17743,5416 17743,11342 11500,11342 11500,5416 Z"/>
     </clipPath>
    </defs>
    <g clip-path="url(#clip_path_2)">
     <path fill="rgb(55,139,186)" stroke="none" d="M 14463,11342 L 11500,8379 14463,5416 14463,6898 12981,8379 14463,9860 14463,11342 Z"/>
     <path fill="rgb(55,139,186)" stroke="none" d="M 14463,9437 L 13405,8379 14463,7321 14463,9437 Z"/>
     <path fill="rgb(48,185,219)" stroke="none" d="M 14674,5416 L 14674,6898 16156,8379 14674,9860 14674,11342 17743,8379 14674,5416 Z"/>
    </g>
   </g>
  </g>
  <g class="Graphic">
   <g id="id5">
    <rect class="BoundingBox" stroke="none" fill="none" x="15268" y="2780" width="5025" height="5654"/>
    <path fill="rgb(161,121,220)" stroke="none" d="M 20208,4205 C 20168,4135 20108,4076 20028,4030 19365,3648 18702,3267 18039,2884 17861,2781 17687,2785 17510,2890 17246,3045 15926,3802 15532,4030 15370,4124 15291,4267 15291,4454 15291,5222 15291,5991 15291,6759 15291,6851 15310,6933 15349,7003 15389,7075 15450,7136 15532,7183 15926,7411 17246,8168 17510,8323 17687,8428 17861,8432 18039,8329 18702,7946 19365,7565 20028,7183 20110,7136 20171,7075 20211,7003 20249,6933 20269,6851 20269,6759 20269,6759 20269,5222 20269,4454 20269,4360 20248,4277 20208,4205 Z"/>
    <path fill="rgb(40,0,104)" stroke="none" d="M 17788,5599 L 15349,7003 C 15389,7075 15450,7136 15532,7183 15926,7411 17246,8168 17510,8323 17687,8428 17861,8432 18039,8329 18702,7946 19365,7565 20028,7183 20110,7136 20171,7075 20211,7003 L 17788,5599 Z"/>
    <path fill="rgb(57,0,145)" stroke="none" d="M 20208,4205 L 17788,5599 20211,7003 C 20249,6933 20269,6851 20269,6759 20269,6759 20269,5222 20269,4454 20269,4360 20248,4277 20208,4205 Z"/>
    <path fill="rgb(255,255,255)" stroke="none" d="M 19223,5074 L 19223,5337 19486,5337 19486,5074 19617,5074 19617,5337 19879,5337 19879,5468 19617,5468 19617,5730 19879,5730 19879,5861 19617,5861 19617,6124 19486,6124 19486,5861 19223,5861 19223,6124 19092,6124 19092,5861 18830,5861 18830,5730 19092,5730 19092,5468 18830,5468 18830,5337 19092,5337 19092,5074 19223,5074 Z M 19486,5468 L 19223,5468 19223,5730 19486,5730 19486,5468 Z"/>
    <path fill="rgb(255,255,255)" stroke="none" d="M 17793,3756 C 18475,3756 19071,4125 19392,4675 L 18587,5139 C 18428,4870 18137,4689 17803,4685 L 17793,4685 C 17284,4685 16872,5098 16872,5606 16872,5607 16872,5607 16872,5607 16872,5768 16914,5925 16993,6064 17152,6341 17451,6528 17793,6528 18138,6528 18438,6339 18596,6058 L 18592,6065 19396,6531 C 19079,7079 18490,7449 17814,7457 L 17793,7457 C 17106,7457 16507,7083 16188,6527 16032,6256 15943,5942 15943,5606 15943,4585 16771,3756 17793,3756 L 17793,3756 Z M 19395,4680 L 19392,4675 19392,4675 C 19393,4677 19394,4679 19395,4680 Z"/>
   </g>
  </g>
 </g>
</svg>